<?xml version="1.0" encoding="UTF-8" standalone="no"?>
<!-- Created with Inkscape (http://www.inkscape.org/) -->

<svg
   version="1.1"
   id="svg1"
   width="186.79466"
   height="128.91199"
   viewBox="0 0 186.79466 128.91198"
   xmlns="http://www.w3.org/2000/svg"
   xmlns:svg="http://www.w3.org/2000/svg">
  <defs
     id="defs1" />
  <g
     id="g1"
     transform="translate(234.90427,-386.56221)">
    <path
       id="path37"
       d="m -128.77359,417.25153 c 3.24533,-3.25333 5.25333,-7.74266 5.25333,-12.70266 0,-9.93334 -8.05333,-17.98667 -17.98666,-17.98667 -6.28,0 -11.80134,3.224 -15.01867,8.10133 -0.85467,0.856 -72.456,89.10667 -73.12533,90.12133 -3.24534,3.25334 -5.25334,7.744 -5.25334,12.70134 0,9.93466 8.05334,17.988 17.98667,17.988 6.28,0 11.80133,-3.22267 15.01867,-8.10134 0.85466,-0.856 72.45599,-89.10799 73.12533,-90.12133"
       style="fill:#7a3bff;fill-opacity:1;fill-rule:nonzero;stroke:none;stroke-width:0.133333" />
    <path
       id="path38"
       d="m -87.341593,459.1262 c 3.254667,-3.256 5.266667,-7.75067 5.266667,-12.71734 0,-9.93333 -8.053334,-17.98666 -17.986664,-17.98666 -6.28267,0 -11.80667,3.22667 -15.024,8.108 -0.86134,0.86266 -38.468,47.21866 -39.14133,48.24 -3.25467,3.256 -5.26667,7.75066 -5.26667,12.716 0,9.93466 8.05333,17.988 17.98667,17.988 6.28266,0 11.80666,-3.22667 15.02266,-8.108 0.86133,-0.86134 38.469334,-47.21867 39.142667,-48.24"
       style="fill:#7a3bff;fill-opacity:1;fill-rule:nonzero;stroke:none;stroke-width:0.133333" />
    <path
       id="path39"
       d="m -48.109594,404.54887 c 0,9.93466 -8.053333,17.98666 -17.986666,17.98666 -9.934667,0 -17.986666,-8.052 -17.986666,-17.98666 0,-9.93334 8.051999,-17.98667 17.986666,-17.98667 9.933333,0 17.986666,8.05333 17.986666,17.98667"
       style="fill:#7a3bff;fill-opacity:1;fill-rule:nonzero;stroke:none;stroke-width:0.133333" />
    <path
       id="path40"
       d="m -198.93092,404.54887 c 0,9.93466 -8.05334,17.98666 -17.98667,17.98666 -9.93333,0 -17.98667,-8.052 -17.98667,-17.98666 0,-9.93334 8.05334,-17.98667 17.98667,-17.98667 9.93333,0 17.98667,8.05333 17.98667,17.98667"
       style="fill:#7a3bff;fill-opacity:1;fill-rule:nonzero;stroke:none;stroke-width:0.133333" />
  </g>
</svg>
